<?xml version="1.0" encoding="utf-8"?>
<!-- Generator: Adobe Illustrator 23.1.1, SVG Export Plug-In . SVG Version: 6.00 Build 0)  -->
<svg version="1.1" id="Layer_1" xmlns="http://www.w3.org/2000/svg" xmlns:xlink="http://www.w3.org/1999/xlink" x="0px" y="0px"
	 viewBox="0 0 123.7 49.6" style="enable-background:new 0 0 123.7 49.6;" xml:space="preserve">
<style type="text/css">
	.st0{fill-rule:evenodd;clip-rule:evenodd;fill:#E4007C;}
	.st1{fill:#383367;}
	.st2{fill-rule:evenodd;clip-rule:evenodd;fill:url(#SVGID_1_);}
	.st3{fill-rule:evenodd;clip-rule:evenodd;fill:#FFFFFF;}
	.st4{fill:#FFFFFF;}
</style>
<path class="st0" d="M6.5,47.7c-0.5,0-1-0.2-1.2-0.6c-0.3-0.4-0.4-0.9-0.2-1.4l10-28.6H3.5c-0.8,0-1.5-0.7-1.5-1.5L1.9,3.4
	C1.9,3,2,2.6,2.3,2.3C2.6,2,3,1.9,3.4,1.9H37c0.5,0,1,0.2,1.2,0.6c0.3,0.4,0.4,0.9,0.2,1.4L23.2,46.7c-0.2,0.6-0.8,1-1.4,1H6.5z"/>
<path class="st1" d="M39.7,1.4C39.1,0.5,38.1,0,37,0H3.4C2.5,0,1.6,0.4,1,1C0.4,1.6,0,2.5,0,3.4l0.1,12.2c0,1.9,1.5,3.4,3.4,3.4h8.9
	L3.3,45.1c-0.4,1-0.2,2.2,0.4,3.1c0.6,0.9,1.7,1.4,2.8,1.4h15.3c1.4,0,2.7-0.9,3.2-2.3L40.2,4.5C40.5,3.5,40.4,2.3,39.7,1.4z
	 M36.5,3.8L21.5,45.9H7l10.7-30.6H3.8L3.8,3.8H36.5z"/>
<path class="st1" d="M123.7,28.4c0-0.4-0.1-2.3-1-4.3c-0.3-0.6-0.6-1.1-0.9-1.6c0.2-0.5,0.3-1,0.3-1.5v-5.9c0-1.9-1.5-3.5-3.5-3.5
	h-11.3c-0.1,0-0.1,0-0.2,0c-0.4,0-2.2,0.2-4.1,1.4c-0.8,0.5-1.5,1.1-2.1,1.9c-1.1-0.9-2.3-1.6-3.6-2.2c-1.7-0.7-3.5-1.1-5.4-1.1
	c-1.9,0-3.7,0.4-5.4,1.1c-0.7,0.3-1.3,0.6-1.9,1c-0.5-1.2-1.7-2-3.1-2h-7.3c-1.9,0-3.5,1.5-3.5,3.5v2.5c-0.5-0.7-1-1.4-1.6-2
	c-1.3-1.3-2.8-2.3-4.4-3c-1.7-0.7-3.5-1.1-5.4-1.1c-1.9,0-3.7,0.4-5.4,1.1c-0.7,0.3-1.4,0.7-2.1,1.1c-0.5-1.3-1.8-2.1-3.2-2.1h-7.3
	c-1.4,0-2.4,0.9-3.2,2c-0.3,0.4-1.1,1.6-1.1,1.6L35.2,13c-0.7-0.9-1.7-1.4-2.7-1.4h-7.3c-1.9,0-3.5,1.5-3.5,3.5V36
	c0,1.9,1.5,3.5,3.5,3.5h7.3c1.9,0,3.5-1.5,3.5-3.5v-1.3c0.3,0.1,0.7,0.2,1,0.2c0,0,0,0,0,0c0.3,0,0.6,0,0.8-0.1V36
	c0,1.9,1.5,3.5,3.5,3.5h7.3c1.5,0,2.8-1,3.2-2.3c0.6,0.4,1.3,0.8,2,1.1c1.7,0.7,3.5,1.1,5.4,1.1c1.9,0,3.7-0.4,5.4-1.1
	c0.6-0.3,1.2-0.5,1.7-0.9c0.5,1.2,1.8,2.1,3.2,2.1h4.2c0.8,0,3.5-0.4,6-2.1c0.9-0.6,1.7-1.3,2.4-2.1c0,0,0,0,0.1,0.1
	c1.3,1.3,2.8,2.3,4.4,3c1.7,0.7,3.5,1.1,5.4,1.1c1.9,0,3.7-0.4,5.4-1.1c1.1-0.5,2.2-1.1,3.1-1.8c0.2,1.7,1.7,3,3.4,3h11.3
	c0.1,0,0.1,0,0.2,0c0.4,0,2.2-0.2,4.1-1.4c1.2-0.8,2.2-1.8,2.9-3c0.8-1.4,1.3-3.1,1.3-5L123.7,28.4
	C123.7,28.5,123.7,28.4,123.7,28.4z"/>
<linearGradient id="SVGID_1_" gradientUnits="userSpaceOnUse" x1="72.6841" y1="16.7628" x2="72.6841" y2="37.0873">
	<stop  offset="6.442173e-02" style="stop-color:#FFED2F"/>
	<stop  offset="9.532931e-02" style="stop-color:#FEE222"/>
	<stop  offset="0.1547" style="stop-color:#FED30F"/>
	<stop  offset="0.2158" style="stop-color:#FDCA04"/>
	<stop  offset="0.2809" style="stop-color:#FDC700"/>
	<stop  offset="0.6685" style="stop-color:#F08F34"/>
	<stop  offset="0.8876" style="stop-color:#E96131"/>
	<stop  offset="1" style="stop-color:#E1312E"/>
</linearGradient>
<path class="st2" d="M74.2,15.1h7.3v11.4c0,8.6-7.4,9.5-7.8,9.5h-4.2v-7.5h3.2c0,0,1.4-0.1,1.4-2.6L74.2,15.1L74.2,15.1z
	 M115.2,22.6h-4.4c0,0-0.8-0.1-0.8-0.8c0-0.7,0.9-0.8,0.9-0.8h7.8v-5.9h-11.3c0,0-5,0.3-5,5.9c0,7,3.7,7.4,5,7.4h4.4
	c0,0,0.8,0.1,0.8,0.8c0,0.7-0.9,0.8-0.9,0.8h-7.8v5.9h11.3c0,0,5-0.3,5-5.9v-1.5C120.2,28.5,120.1,22.6,115.2,22.6z M37,21l-4.5-5.9
	h-7.3V36h7.3V25.7l4.5,5.8l4.3-5.5V36h7.3V15.1h-7.3L37,21z M69.7,25.5c0,5.7-4.7,10.4-10.4,10.4c-5.8,0-10.4-4.7-10.4-10.4
	c0-5.7,4.7-10.4,10.4-10.4C65,15.1,69.7,19.8,69.7,25.5z M62.2,25.6c0-1.6-1.3-3-2.9-3c-1.6,0-3,1.3-3,3c0,1.6,1.3,2.9,2.9,3
	C60.9,28.5,62.2,27.2,62.2,25.6z M102.4,25.5c0,5.7-4.7,10.4-10.4,10.4c-5.8,0-10.4-4.7-10.4-10.4c0-5.7,4.7-10.4,10.4-10.4
	C97.7,15.1,102.4,19.8,102.4,25.5z M94.9,25.6c0-1.6-1.3-3-2.9-3c-1.6,0-3,1.3-3,3c0,1.6,1.3,2.9,2.9,3
	C93.6,28.5,94.9,27.2,94.9,25.6z"/>
<path id="Shape_3_copy_5_2_" class="st3" d="M58.3,27.6l2.9-0.1l-1-1.2l1.2,1l0.1-2.8l0.1,2.8l1.2-1.1l-1.1,1.3l2.9,0.1l-2.9,0.1
	l1,1.2l-1.2-1l-0.2,2.9l-0.1-2.9L60.1,29l1.1-1.3L58.3,27.6z"/>
<path id="Shape_3_copy_4_2_" class="st3" d="M21.8,15.1l3.1-0.1l-1.1-1.3l1.3,1.1l0.1-3l0.1,3l1.3-1.2L25.5,15l3.1,0.1l-3.1,0.1
	l1.1,1.2l-1.3-1.1l-0.2,3.1l-0.1-3.1l-1.4,1.2l1.2-1.4L21.8,15.1z"/>
<path id="Shape_3_copy_3_2_" class="st3" d="M81.5,18.4l2.7-0.1l-1-1.1l1.1,0.9l0.1-2.6l0.1,2.6l1.2-1l-1,1.2l2.7,0.1l-2.7,0.1
	l0.9,1.1l-1.1-1l-0.2,2.7l-0.1-2.7l-1.2,1.1l1-1.2L81.5,18.4z"/>
<path class="st4" d="M6.7,6.8L4.2,4.1C4.3,4,4.5,3.9,4.7,3.9L6,3.8c0,0,0.1,0,0.1,0c0,0,0,0,0,0l0.3,0L4.6,3.7
	c-0.2,0-0.3-0.1-0.4-0.2l2.5-2.7L4,3.4C3.9,3.2,3.9,3,3.8,2.8L3.8,1.9c0-0.1,0-0.3,0-0.4c0,0.1,0,0.1,0,0.2l0-0.5L3.6,3.1
	c0,0.1-0.1,0.2-0.1,0.3L0.8,0.8l2.5,2.7C3.2,3.6,3.1,3.7,2.9,3.7L1.5,3.8c0,0,0,0-0.1,0c0,0,0,0,0,0l-0.3,0L3,3.9
	C3.1,4,3.2,4,3.3,4.1L0.8,6.8l2.7-2.5c0.1,0.1,0.1,0.2,0.2,0.4l0.1,1.8l0.1-1.7c0-0.2,0.1-0.3,0.2-0.4L6.7,6.8z"/>
</svg>
