<svg xmlns="http://www.w3.org/2000/svg" viewBox="0 0 212.48 69.95"><defs><style>.cls-1{fill:#fff;}.cls-2{fill:#026fb2;}</style></defs><g id="Layer_2" data-name="Layer 2"><g id="Layer_6" data-name="Layer 6"><path class="cls-1" d="M69.3,30.76a40.7,40.7,0,0,1-10.09,8.18,24.8,24.8,0,0,1-48.86.18c-.89-.51-1.77-1-2.62-1.63A38.9,38.9,0,0,1,.21,31,34.16,34.16,0,0,0,0,34.76a34.77,34.77,0,1,0,69.53,0A35.35,35.35,0,0,0,69.3,30.76Z"/><path class="cls-1" d="M34.77,0A34.76,34.76,0,0,0,.85,27.17l.42.45A39.72,39.72,0,0,0,10,34.3a24.8,24.8,0,0,1,49.58-.09A40.2,40.2,0,0,0,68,27.78c.24-.24.46-.48.69-.72A34.77,34.77,0,0,0,34.77,0Z"/><path class="cls-1" d="M34.76,12.22A22.54,22.54,0,1,0,57.3,34.76,22.55,22.55,0,0,0,34.76,12.22ZM17,27.13a19,19,0,0,1,1.3-2.5c5.91-.72,14.34-1,19.88,2.16,9.32,5.25,5.47,8.93,1,9.44S30.84,33.41,25,38.06c-3.45,2.73-1.84,8.84.08,13.42A19.35,19.35,0,0,1,17,27.13Zm37,10.33c0,.29-.09.57-.14.85,0,0,0,.07,0,.1-.05.25-.1.5-.16.74,0,.07,0,.15,0,.22s-.11.41-.17.62l-.09.33c0,.17-.11.34-.16.51l-.15.44c-.05.14-.1.27-.16.41s-.14.36-.21.54-.09.22-.14.32l-.27.59-.14.28c-.1.2-.2.4-.31.59a2.15,2.15,0,0,1-.14.26c-.11.2-.23.4-.35.6s-.09.14-.13.22-.27.42-.41.62l-.11.16q-.24.36-.51.69l0,.06a19.37,19.37,0,0,1-22.94,5.94l-.5-.24c-.66-3.77-.76-8.71,2.52-10.86,5.65-3.71,10.39,2.34,17.48-.25S50.5,24.74,37,21.46a32.94,32.94,0,0,0-16.91.66c.18-.22.37-.43.57-.64h0q.3-.32.6-.6a1.59,1.59,0,0,1,.13-.13L22,20.2l.09-.09a19.75,19.75,0,0,1,2-1.52l.22-.14.6-.37.36-.2.54-.3.89-.43.32-.14.76-.31.38-.14.52-.18.38-.12.56-.16L30,16l.6-.14.33-.07.64-.11.28,0,.71-.1.21,0,.82-.07h.1a19.37,19.37,0,0,1,20.23,22Z"/><path class="cls-1" d="M86.65,13.62c.16-1,.3-2,.51-2.95a.81.81,0,0,0-.29-.9c-.69-.63-1.35-1.29-2-1.95-.45-.45-.36-.76.27-.87.91-.17,1.85-.24,2.76-.43A1.28,1.28,0,0,0,88.66,6c.45-.78.82-1.62,1.25-2.42.09-.18.32-.41.48-.41s.39.23.49.42c.41.76.81,1.53,1.16,2.32a1.06,1.06,0,0,0,1,.7c.84.09,1.68.21,2.51.35.22,0,.55.19.57.32a.92.92,0,0,1-.27.66c-.65.67-1.35,1.29-2,2a1,1,0,0,0-.22.72c.13.95.34,1.88.47,2.83a.93.93,0,0,1-.21.68c-.08.07-.43-.06-.62-.15-.87-.44-1.73-.92-2.6-1.35a.76.76,0,0,0-.59,0c-.89.45-1.76.93-2.63,1.41C87,14.28,86.66,14.12,86.65,13.62Z"/><path class="cls-1" d="M161.39,13.62c.17-1,.36-2,.5-3a1,1,0,0,0-.22-.72c-.69-.72-1.42-1.39-2.13-2.09-.4-.4-.34-.69.22-.79.89-.18,1.79-.3,2.7-.41a1.11,1.11,0,0,0,1-.72,22.73,22.73,0,0,1,1.1-2.21,1,1,0,0,1,.56-.5c.13,0,.39.27.5.47.39.73.79,1.46,1.1,2.21a1.15,1.15,0,0,0,1.08.76c.84.09,1.68.21,2.51.36a.84.84,0,0,1,.57.33c.06.13-.13.42-.28.57-.63.65-1.28,1.29-1.95,1.9a.88.88,0,0,0-.32,1c.2.88.34,1.79.46,2.69a2.38,2.38,0,0,1-.15.71,3.12,3.12,0,0,1-.7-.17c-.85-.43-1.68-.9-2.54-1.31a1,1,0,0,0-.7,0c-.87.44-1.72.92-2.57,1.39C161.72,14.29,161.38,14.1,161.39,13.62Z"/><path class="cls-1" d="M121.65,7.29a3.51,3.51,0,0,1,.66-.26c.83-.15,1.67-.3,2.51-.37A1.27,1.27,0,0,0,126,5.83c.33-.78.72-1.53,1.11-2.28.09-.17.3-.39.44-.38s.35.22.44.39c.42.8.82,1.62,1.2,2.45a1,1,0,0,0,.91.62c.9.11,1.8.25,2.7.4a3.87,3.87,0,0,1,.73.29c-.89.87-1.68,1.67-2.49,2.44a1,1,0,0,0-.31,1c.2.86.34,1.74.47,2.62,0,.2-.12.43-.18.65a3.45,3.45,0,0,1-.57-.18c-.87-.44-1.72-.92-2.6-1.35a.76.76,0,0,0-.59,0c-.9.45-1.77.93-2.66,1.39-.15.08-.46.18-.49.14a1,1,0,0,1-.21-.63c.12-.88.27-1.75.46-2.62a1,1,0,0,0-.29-1c-.67-.62-1.3-1.28-1.93-1.93C122,7.69,121.86,7.53,121.65,7.29Z"/><path class="cls-1" d="M74.68,61.48H73.1V60h4.63v1.49H76.16v8.34H74.68Z"/><path class="cls-1" d="M81.26,60a2.28,2.28,0,0,1,1.82.68,2.51,2.51,0,0,1,.51,1.67v1.42a2.29,2.29,0,0,1-.79,1.77l1.1,4.29H82.29l-.9-3.7h-1v3.7H78.92V60Zm.89,2.37a.76.76,0,0,0-.85-.86h-.89v3.15h.89a.79.79,0,0,0,.6-.25.82.82,0,0,0,.25-.6Z"/><path class="cls-1" d="M86.65,69.82H85.17V60h1.48Z"/><path class="cls-1" d="M90.31,60a2.27,2.27,0,0,1,1.73.68,2.38,2.38,0,0,1,.6,1.67v1.42A2.31,2.31,0,0,1,92,65.43a2.22,2.22,0,0,1-1.65.69h-.85v3.7H88V60Zm.89,2.37a.86.86,0,0,0-.23-.62.81.81,0,0,0-.62-.24h-.89v3.15h.89a.79.79,0,0,0,.6-.25.82.82,0,0,0,.25-.6Z"/><path class="cls-1" d="M97.86,69.82h-4V60H95.3v8.36h2.56Z"/><path class="cls-1" d="M98.88,69.82V60h4.22v1.49h-2.74v2.69h2v1.49h-2v2.68h2.74v1.49Z"/><path class="cls-1" d="M111.65,60a2.27,2.27,0,0,1,1.73.68,2.38,2.38,0,0,1,.6,1.67v1.42a2.31,2.31,0,0,1-.68,1.67,2.24,2.24,0,0,1-1.65.69h-.85v3.7h-1.48V60Zm.89,2.37a.86.86,0,0,0-.23-.62.83.83,0,0,0-.62-.24h-.89v3.15h.89a.79.79,0,0,0,.6-.25.82.82,0,0,0,.25-.6Z"/><path class="cls-1" d="M117.5,60a2.29,2.29,0,0,1,1.82.68,2.51,2.51,0,0,1,.51,1.67v1.42a2.32,2.32,0,0,1-.79,1.77l1.09,4.29h-1.6l-.9-3.7h-1v3.7h-1.48V60Zm.88,2.37a.75.75,0,0,0-.84-.86h-.9v3.15h.9a.82.82,0,0,0,.6-.25.85.85,0,0,0,.24-.6Z"/><path class="cls-1" d="M123.5,59.86a2.36,2.36,0,0,1,2.35,2.36v5.36a2.35,2.35,0,1,1-4.7,0V62.22a2.36,2.36,0,0,1,2.35-2.36Zm.81,2.33a.85.85,0,0,0-.85-.85.8.8,0,0,0-.6.25.79.79,0,0,0-.25.6v5.38a.82.82,0,0,0,.25.6.84.84,0,0,0,.6.25.85.85,0,0,0,.85-.85Z"/><path class="cls-1" d="M128.64,69.82h-1.48V60h4.22v1.49h-2.74v2.69h2v1.49h-2Z"/><path class="cls-1" d="M133.88,69.82H132.4V60h1.48Z"/><path class="cls-1" d="M136.65,61.48h-1.58V60h4.63v1.49h-1.57v8.34h-1.48Z"/><path class="cls-1" d="M145.62,67.37a2.75,2.75,0,0,1-.53,1.76,1.94,1.94,0,0,1-1,.7,2.86,2.86,0,0,1-.82.11,2.24,2.24,0,0,1-2.2-1.39,3.79,3.79,0,0,1-.33-1.4l1.41-.1a2.23,2.23,0,0,0,.46,1.25.77.77,0,0,0,.61.27.94.94,0,0,0,.78-.48,1.18,1.18,0,0,0,.15-.65,1.8,1.8,0,0,0-.56-1.21L142.25,65a5.77,5.77,0,0,1-1-1.28,3,3,0,0,1-.33-1.38,2.41,2.41,0,0,1,.9-2,2.22,2.22,0,0,1,1.38-.42,2.49,2.49,0,0,1,1.36.36,2,2,0,0,1,.71.77,2.75,2.75,0,0,1,.32,1.13l-1.42.26a1.7,1.7,0,0,0-.34-.94.73.73,0,0,0-.59-.24.68.68,0,0,0-.62.36,1.42,1.42,0,0,0-.17.72,2.13,2.13,0,0,0,.58,1.37,4.08,4.08,0,0,0,.66.63c.34.29.57.49.68.61a4.72,4.72,0,0,1,.85,1.08,3.73,3.73,0,0,1,.22.46A2.44,2.44,0,0,1,145.62,67.37Z"/><path class="cls-1" d="M153.85,70a2.24,2.24,0,0,1-1.66-.69,2.27,2.27,0,0,1-.69-1.66V62.23a2.35,2.35,0,0,1,4-1.66,2.3,2.3,0,0,1,.68,1.66v1.13h-1.54V62.2a.85.85,0,0,0-.85-.85.79.79,0,0,0-.6.25.82.82,0,0,0-.25.6v5.38a.82.82,0,0,0,.25.61.81.81,0,0,0,.6.24.85.85,0,0,0,.6-.24.82.82,0,0,0,.25-.6V65.65h-.82V64.16h2.36V67.6A2.36,2.36,0,0,1,153.85,70Z"/><path class="cls-1" d="M159.12,67.56l-.36,2.26h-1.54L158.89,60h2l1.65,9.83H161l-.35-2.26Zm.78-5.32-.55,3.88h1.1Z"/><path class="cls-1" d="M165.31,69.82h-1.49V60H166l1.38,7.07L168.66,60h2.05v9.84h-1.49V63.64l-1.28,6.18h-1.2l-1.43-6.17Z"/><path class="cls-1" d="M172,69.82V60h4.22v1.49h-2.74v2.69h2v1.49h-2v2.68h2.74v1.49Z"/><path class="cls-1" d="M182.18,67.37a2.75,2.75,0,0,1-.54,1.76,1.94,1.94,0,0,1-1,.7,2.86,2.86,0,0,1-.82.11,2.42,2.42,0,0,1-1.45-.43,2.5,2.5,0,0,1-.75-1,3.79,3.79,0,0,1-.33-1.4l1.41-.1a2.23,2.23,0,0,0,.46,1.25.77.77,0,0,0,.61.27.92.92,0,0,0,.78-.48,1.18,1.18,0,0,0,.15-.65,1.8,1.8,0,0,0-.56-1.21L178.8,65a5.77,5.77,0,0,1-1-1.28,3,3,0,0,1-.33-1.38,2.41,2.41,0,0,1,.9-2,2.22,2.22,0,0,1,1.38-.42,2.49,2.49,0,0,1,1.36.36,2,2,0,0,1,.71.77,2.75,2.75,0,0,1,.32,1.13l-1.42.26a1.7,1.7,0,0,0-.34-.94.73.73,0,0,0-.59-.24.68.68,0,0,0-.62.36,1.42,1.42,0,0,0-.17.72,2.13,2.13,0,0,0,.58,1.37,5.15,5.15,0,0,0,.66.63c.34.29.57.49.68.61a4.72,4.72,0,0,1,.85,1.08c.09.17.17.32.23.46A2.87,2.87,0,0,1,182.18,67.37Z"/><path class="cls-1" d="M107.58,17H78.9a5.8,5.8,0,0,0-5.8,5.81c0,6.93,0,18.43,0,25.25a9.11,9.11,0,0,0,1.26,4.69,6.67,6.67,0,0,0,6.06,3.57h27.15C107.58,55.93,107.57,18.2,107.58,17Zm-3.91,14.66H93.43V48H87.16V31.62H77V25.79h26.66Z"/><path class="cls-1" d="M110.44,17v39.3h34.3V17ZM140,36.91a3.14,3.14,0,0,1-.49,1.35,2.76,2.76,0,0,1-1.37,1h-17.3v8.43h-5.73V33.82h17.74a.63.63,0,0,0,.7-.44,3,3,0,0,0,.13-.88,1.53,1.53,0,0,0-.15-.75,1.38,1.38,0,0,0-.64-.49H115.15V25.44h23a2.9,2.9,0,0,1,.88.33,1.67,1.67,0,0,1,.49.46,2.35,2.35,0,0,1,.26.53,3.54,3.54,0,0,0,.23.53Z"/><path class="cls-1" d="M170.33,17H148V56.25h22.31a11.84,11.84,0,0,0,11.84-11.84V28.81A11.85,11.85,0,0,0,170.33,17Zm8.52,14.25H157.53V41.59h14.7a.7.7,0,0,0,.22-.4,4.26,4.26,0,0,0,.13-.62,1.33,1.33,0,0,0-1-1.41h-10V33.82h14.47a1.89,1.89,0,0,1,1.37.51,3.76,3.76,0,0,1,.84,1.26,6.88,6.88,0,0,1,.42,1.65,15.36,15.36,0,0,1,.11,1.75v5.07a2.84,2.84,0,0,1-.29,1.19,4.54,4.54,0,0,1-.77,1.15,4.63,4.63,0,0,1-1.1.88,2.48,2.48,0,0,1-1.24.36H154.89a2.23,2.23,0,0,1-1.15-.38,6.16,6.16,0,0,1-1.15-.9,5.58,5.58,0,0,1-.88-1.15,2.3,2.3,0,0,1-.35-1.15V29a2.26,2.26,0,0,1,.35-1.14,5.1,5.1,0,0,1,.88-1.15,6.22,6.22,0,0,1,1.15-.91,2.21,2.21,0,0,1,1.15-.37h20.43a2.43,2.43,0,0,1,1.15.35,5.61,5.61,0,0,1,1.14.88,5.13,5.13,0,0,1,.88,1.17,2.45,2.45,0,0,1,.36,1.17Z"/><path class="cls-2" d="M196.48,38.66a.67.67,0,0,0,.36.31h0a.67.67,0,0,0,.47,0,.6.6,0,0,0,.31-.36l3.14-9.7c-.27-.46-.56-.9-.87-1.33l-3.45,10.65A.68.68,0,0,0,196.48,38.66Z"/><path class="cls-1" d="M202.56,33l-1.51,4.68a4.93,4.93,0,0,1,0,.54,4,4,0,1,1-6.95-2.73l3.44-10.62a18.29,18.29,0,0,0-5.09-3.4,5.2,5.2,0,0,0-7.34,4.72V51.72a3.92,3.92,0,0,0,5,3.78A18.1,18.1,0,0,0,202.56,33Z"/><path class="cls-1" d="M204.84,14.24a7,7,0,0,1-1.91-1L195,37.73a2.12,2.12,0,0,0,4,1.3L207,14.58A7.11,7.11,0,0,1,204.84,14.24Z"/><circle class="cls-1" cx="206.99" cy="7.59" r="5.49"/></g></g></svg>